<svg xmlns="http://www.w3.org/2000/svg" width="180" height="180" viewBox="0 0 180 180" fill="none"><g id="Web-Services_Zabbix-icon_180x180"><g id="Group"><path id="Vector" d="M151.022 40.5615C155.281 40.5615 158.75 44.0653 158.75 48.3672V123.504" stroke="#0A466A" stroke-width="2" stroke-linecap="round" stroke-linejoin="round"></path><path id="Vector_2" d="M30.5746 40.5615C26.3156 40.5615 22.8467 44.0653 22.8467 48.3672V123.504" stroke="#0A466A" stroke-width="2" stroke-linecap="round" stroke-linejoin="round"></path><path id="Vector_3" d="M106.158 138.96H30.5746C26.3156 138.96 22.8467 135.456 22.8467 131.154V55.998" stroke="#0A466A" stroke-width="2" stroke-linecap="round" stroke-linejoin="round"></path><path id="Vector_4" d="M75.4385 138.96H151.041C155.3 138.96 158.769 135.456 158.769 131.154V55.998" stroke="#0A466A" stroke-width="2" stroke-linecap="round" stroke-linejoin="round"></path><path id="Vector_5" d="M158.769 126.911H22.8267" stroke="#0A466A" stroke-width="2" stroke-linecap="round" stroke-linejoin="round"></path><path id="Vector_6" d="M103.594 138.96H80.2178V155.077H103.594V138.96Z" stroke="#0A466A" stroke-width="2" stroke-linecap="round" stroke-linejoin="round"></path><path id="Vector_7" d="M56.9185 155.058H128.127" stroke="#0A466A" stroke-width="2" stroke-linecap="round" stroke-linejoin="round"></path></g><path id="Vector_8" d="M31.3848 35.0771H149.539" stroke="#0A466A" stroke-width="2" stroke-linecap="round" stroke-linejoin="round"></path><path id="Vector_9" d="M125.105 120H146.229C148.565 120 150.462 118.225 150.462 116.062V25.1695C150.462 23.0064 148.545 21.231 146.229 21.231H35.6175C33.2815 21.231 31.3848 23.0064 31.3848 25.1695V116.062C31.3848 118.225 33.3015 120 35.6175 120H125.105Z" stroke="#0A466A" stroke-width="2" stroke-linecap="round" stroke-linejoin="round"></path><g id="Group_2"><path id="Vector_10" d="M37.4115 30.5181C38.5863 30.5181 39.5387 29.5107 39.5387 28.2681C39.5387 27.0254 38.5863 26.0181 37.4115 26.0181C36.2366 26.0181 35.2842 27.0254 35.2842 28.2681C35.2842 29.5107 36.2366 30.5181 37.4115 30.5181Z" fill="#0A466A"></path><path id="Vector_11" d="M44.9798 30.5181C46.1547 30.5181 47.1071 29.5107 47.1071 28.2681C47.1071 27.0254 46.1547 26.0181 44.9798 26.0181C43.8049 26.0181 42.8525 27.0254 42.8525 28.2681C42.8525 29.5107 43.8049 30.5181 44.9798 30.5181Z" fill="#0A466A"></path><path id="Vector_12" d="M52.5477 30.5181C53.7225 30.5181 54.675 29.5107 54.675 28.2681C54.675 27.0254 53.7225 26.0181 52.5477 26.0181C51.3728 26.0181 50.4204 27.0254 50.4204 28.2681C50.4204 29.5107 51.3728 30.5181 52.5477 30.5181Z" fill="#0A466A"></path></g><path id="Vector_13" d="M117.757 80.9592C119.168 80.366 119.864 80.0796 121.275 79.4865L122.646 75.6001C125.059 75.6001 125.059 75.6001 127.473 75.6001L128.864 79.466C130.275 80.0387 130.991 80.3251 132.382 80.9183L136.084 79.1387L139.521 82.5342L137.762 86.2569C138.355 87.6683 138.641 88.3637 139.234 89.7751L143.121 91.1456V95.9728L139.275 97.3637C138.702 98.7751 138.416 99.491 137.823 100.882L139.602 104.584L136.207 108.021L132.484 106.261C131.073 106.855 130.377 107.141 128.966 107.734L127.596 111.621H122.768L121.377 107.775L117.859 106.323L114.157 108.102L110.721 104.707L112.48 100.984L111.007 97.466L107.121 96.0956C107.121 93.6819 107.121 96.6069 107.121 94.1933" stroke="#0A466A" stroke-width="2" stroke-linecap="round" stroke-linejoin="round"></path><path id="circle30" d="M125.744 100.999C129.84 100.639 132.868 97.0257 132.508 92.9295C132.147 88.8334 128.534 85.805 124.438 86.1656C120.342 86.5261 117.314 90.139 117.674 94.2351C118.035 98.3313 121.648 101.36 125.744 100.999Z" stroke="#0A466A" stroke-width="2" stroke-linecap="round" stroke-linejoin="round"></path><path id="Vector_14" d="M68.1342 76.9298L64.4115 75.1707C63.0001 75.7639 62.3047 76.0502 60.8933 76.6434L59.5228 80.5298H54.6956L53.3047 76.6843L49.7865 75.2321L46.0842 77.0116L42.6479 73.6162L44.4069 69.8934L42.9342 66.3752L39.0479 65.0048V60.1775L42.8933 58.7866C43.466 57.3752 43.7524 56.6593 44.3456 55.2684L42.566 51.5661L45.9615 48.1298L49.6842 49.8889C51.0956 49.2957 51.791 49.0093 53.2024 48.4161L54.5728 44.5298C56.9865 44.5298 56.9865 44.5298 59.4001 44.5298L60.791 48.3957C62.2024 48.9684 62.9183 49.2548 64.3092 49.848L68.0115 48.0684L71.4478 51.4639L69.6888 55.1866C70.2819 56.598 70.5683 57.2934 71.1615 58.7048" stroke="#0A466A" stroke-width="2" stroke-linecap="round" stroke-linejoin="round"></path><path id="circle30_2" d="M57.6823 69.901C61.7785 69.5404 64.8069 65.9276 64.4463 61.8314C64.0858 57.7352 60.4729 54.7069 56.3767 55.0674C52.2806 55.4279 49.2522 59.0408 49.6128 63.137C49.9733 67.2332 53.5862 70.2615 57.6823 69.901Z" stroke="#0A466A" stroke-width="2" stroke-linecap="round" stroke-linejoin="round"></path><path id="Vector_15" d="M93.7433 98.0388C107.695 98.0388 119.005 86.729 119.005 72.7775C119.005 58.826 107.695 47.5161 93.7433 47.5161C79.7918 47.5161 68.4819 58.826 68.4819 72.7775C68.4819 86.729 79.7918 98.0388 93.7433 98.0388Z" stroke="#0A466A" stroke-width="2" stroke-linecap="round" stroke-linejoin="round"></path><path id="Vector_16" d="M74.9864 89.6934L67.1523 97.5275" stroke="#0A466A" stroke-width="2" stroke-linecap="round" stroke-linejoin="round"></path><path id="Vector_17" d="M60.4971 97.1992L50.5896 107.107C49.0798 108.616 49.0798 111.064 50.5896 112.574L52.0359 114.02C53.5457 115.53 55.9934 115.53 57.5031 114.02L67.4107 104.113C68.9204 102.603 68.9204 100.155 67.4107 98.6455L65.9643 97.1992C64.4546 95.6895 62.0068 95.6895 60.4971 97.1992Z" stroke="#0A466A" stroke-width="2" stroke-linecap="round" stroke-linejoin="round"></path><g id="Group_3"><path id="Vector_18" d="M93.7432 87.9546C102.125 87.9546 108.92 81.1595 108.92 72.7774C108.92 64.3952 102.125 57.6001 93.7432 57.6001C85.361 57.6001 78.5659 64.3952 78.5659 72.7774C78.5659 81.1595 85.361 87.9546 93.7432 87.9546Z" stroke="#D40000" stroke-width="2" stroke-linecap="round" stroke-linejoin="round"></path><path id="Vector_19" d="M93.7431 87.9546C97.6857 87.9546 100.882 81.1595 100.882 72.7774C100.882 64.3952 97.6857 57.6001 93.7431 57.6001C89.8006 57.6001 86.6045 64.3952 86.6045 72.7774C86.6045 81.1595 89.8006 87.9546 93.7431 87.9546Z" stroke="#D40000" stroke-width="2" stroke-linecap="round" stroke-linejoin="round"></path><path id="Vector_20" d="M93.7432 57.6001V87.341" stroke="#D40000" stroke-width="2" stroke-linecap="round" stroke-linejoin="round"></path><path id="Vector_21" d="M108.921 72.7773H78.5864" stroke="#D40000" stroke-width="2" stroke-linecap="round" stroke-linejoin="round"></path></g></g></svg>