<svg xmlns="http://www.w3.org/2000/svg" width="180" height="180" viewBox="0 0 180 180" fill="none"><g id="Services_Zabbix-icon_180x180"><g id="Group"><path id="Vector" d="M173.761 137.544C173.761 112.344 153.348 91.9302 128.148 91.9302C102.948 91.9302 82.5342 112.344 82.5342 137.544V148.405H173.761V137.544Z" stroke="#0A466A" stroke-width="2" stroke-linecap="round" stroke-linejoin="round"></path><path id="Vector_2" d="M161.755 137.544C161.755 118.992 146.721 103.937 128.148 103.937C109.575 103.937 94.541 118.971 94.541 137.544H106.671C106.671 125.68 116.284 116.067 128.148 116.067C140.011 116.067 149.625 125.68 149.625 137.544H161.755Z" stroke="#0A466A" stroke-width="2" stroke-linecap="round" stroke-linejoin="round"></path><path id="Vector_3" d="M128.148 116.067V103.958" stroke="#0A466A" stroke-width="2" stroke-linecap="round" stroke-linejoin="round"></path><path id="Vector_4" d="M116.182 119.155L109.125 109.951" stroke="#0A466A" stroke-width="2" stroke-linecap="round" stroke-linejoin="round"></path><path id="Vector_5" d="M98.3862 123L108.777 127.685" stroke="#0A466A" stroke-width="2" stroke-linecap="round" stroke-linejoin="round"></path><path id="Vector_6" d="M140.257 119.155L147.334 109.951" stroke="#D40000" stroke-width="2" stroke-linecap="round" stroke-linejoin="round"></path><path id="Vector_7" d="M158.073 123L147.662 127.685" stroke="#D40000" stroke-width="2" stroke-linecap="round" stroke-linejoin="round"></path><path id="Vector_8" d="M139.93 119.585C145.759 123.43 149.625 130.037 149.625 137.544H161.755C161.755 126.11 156.048 116.026 147.334 109.951" stroke="#D40000" stroke-width="2" stroke-linecap="round" stroke-linejoin="round"></path><path id="Vector_9" d="M131.257 143.128L141.279 136.971L151.302 130.794L139.52 130.978L127.739 131.162C127.289 131.203 126.818 131.264 126.368 131.408C122.973 132.389 121.029 135.948 122.032 139.323C123.034 142.698 126.573 144.662 129.948 143.66C130.398 143.517 130.827 143.333 131.236 143.108L131.257 143.128Z" stroke="#0A466A" stroke-width="2" stroke-linecap="round" stroke-linejoin="round"></path></g><path id="Vector_10" d="M18 34.5347H146.189" stroke="#0A466A" stroke-width="2" stroke-linecap="round" stroke-linejoin="round"></path><path id="Vector_11" d="M146.189 95.6317V24.3067C146.189 22.159 144.143 20.3999 141.627 20.3999H22.5819C20.066 20.3999 18.0205 22.159 18.0205 24.3067V114.614C18.0205 116.761 20.066 118.52 22.5819 118.52H86.6864" stroke="#0A466A" stroke-width="2" stroke-linecap="round" stroke-linejoin="round"></path><g id="Group_2"><path id="Vector_12" d="M26.0181 29.7482C27.2495 29.7482 28.2477 28.7499 28.2477 27.5186C28.2477 26.2873 27.2495 25.2891 26.0181 25.2891C24.7868 25.2891 23.7886 26.2873 23.7886 27.5186C23.7886 28.7499 24.7868 29.7482 26.0181 29.7482Z" fill="#0A466A"></path><path id="Vector_13" d="M33.9546 29.7482C35.186 29.7482 36.1842 28.7499 36.1842 27.5186C36.1842 26.2873 35.186 25.2891 33.9546 25.2891C32.7233 25.2891 31.7251 26.2873 31.7251 27.5186C31.7251 28.7499 32.7233 29.7482 33.9546 29.7482Z" fill="#0A466A"></path><path id="Vector_14" d="M41.9112 29.7482C43.1425 29.7482 44.1407 28.7499 44.1407 27.5186C44.1407 26.2873 43.1425 25.2891 41.9112 25.2891C40.6798 25.2891 39.6816 26.2873 39.6816 27.5186C39.6816 28.7499 40.6798 29.7482 41.9112 29.7482Z" fill="#0A466A"></path></g><path id="Vector_15" d="M74.6796 67.916H31.7251V80.1683H74.6796V67.916Z" stroke="#0A466A" stroke-width="2" stroke-linecap="round" stroke-linejoin="round"></path><path id="Vector_16" d="M74.6796 91.6846H31.7251V103.937H74.6796V91.6846Z" stroke="#0A466A" stroke-width="2" stroke-linecap="round" stroke-linejoin="round"></path><path id="Vector_17" d="M134.121 67.916H91.166V80.1683H134.121V67.916Z" stroke="#0A466A" stroke-width="2" stroke-linecap="round" stroke-linejoin="round"></path><path id="Vector_18" d="M58.9908 50.2847H53.2021" stroke="#0A466A" stroke-width="2" stroke-linecap="round" stroke-linejoin="round"></path><path id="Vector_19" d="M53.2021 67.9165V50.2847" stroke="#0A466A" stroke-width="2" stroke-linecap="round" stroke-linejoin="round"></path><path id="Vector_20" d="M53.2021 91.6844V80.1685" stroke="#0A466A" stroke-width="2" stroke-linecap="round" stroke-linejoin="round"></path><path id="Vector_21" d="M112.643 67.9161V51.082" stroke="#0A466A" stroke-width="2" stroke-linecap="round" stroke-linejoin="round"></path><path id="Vector_22" d="M103.582 50.2847H112.643" stroke="#0A466A" stroke-width="2" stroke-linecap="round" stroke-linejoin="round"></path><path id="Vector_23" d="M103.582 44.1479H60.6274V56.4002H103.582V44.1479Z" stroke="#D40000" stroke-width="2" stroke-linecap="round" stroke-linejoin="round"></path></g></svg>