<svg xmlns="http://www.w3.org/2000/svg" width="180" height="180" viewBox="0 0 180 180" fill="none"><g id="IoT_Zabbix-icon_180x180"><g id="Group"><path id="Vector" d="M142.568 139.091C142.568 137.864 141.75 136.636 140.523 136.432C139.296 136.227 138.068 136.841 137.659 138.068C137.25 139.295 137.659 140.523 138.682 141.341V145.432C138.682 146.25 139.296 146.864 140.114 146.864C140.932 146.864 141.546 146.25 141.546 145.432V141.341C142.159 140.932 142.568 140.114 142.568 139.091Z" fill="#0A466A"></path><path id="Vector_2" d="M139.909 131.727C139.909 131.727 131.523 132.136 127.637 134.182V149.318C131.523 151.363 139.909 151.772 139.909 151.772" stroke="#0A466A" stroke-width="2" stroke-linecap="round" stroke-linejoin="round"></path><path id="Vector_3" d="M139.909 131.727C139.909 131.727 148.296 132.136 152.182 134.182V149.318C148.296 151.363 139.909 151.772 139.909 151.772" stroke="#0A466A" stroke-width="2" stroke-linecap="round" stroke-linejoin="round"></path><path id="Vector_4" d="M131.523 132.75V129.273C131.523 124.568 135.409 120.682 140.114 120.682C144.818 120.682 148.705 124.568 148.705 129.273V132.75" stroke="#0A466A" stroke-width="2" stroke-linecap="round" stroke-linejoin="round"></path><path id="Vector_5" d="M57.4775 137.045C57.4775 136.841 57.4775 136.841 57.4775 137.045ZM57.4775 137.045C58.2957 135.818 58.7048 134.386 58.7048 132.954C58.7048 128.864 55.4321 125.591 51.3412 125.591C47.2503 125.591 43.9775 128.864 43.9775 132.954C43.9775 134.386 44.3866 135.818 45.2048 136.841C45.4094 137.25 45.6139 137.659 46.023 137.864C47.0457 139.295 48.4775 141.75 48.273 143.795H51.1366H54.4094C54.2048 141.75 55.8412 139.091 56.6594 137.659C57.0684 137.659 57.273 137.25 57.4775 137.045Z" stroke="#0A466A" stroke-width="2" stroke-linecap="round" stroke-linejoin="round"></path><path id="Vector_6" d="M48.6821 148.5H53.5912" stroke="#0A466A" stroke-width="2" stroke-linecap="round" stroke-linejoin="round"></path><path id="Vector_7" d="M153 112.5H124.364L110.25 137.25L124.364 162H153L167.318 137.25L153 112.5Z" stroke="#0A466A" stroke-width="2" stroke-linecap="round" stroke-linejoin="round"></path><path id="Vector_8" d="M57.682 36.8184H31.9093L19.0229 59.1138L31.9093 81.4093H57.682L70.5684 59.1138L57.682 36.8184Z" stroke="#0A466A" stroke-width="2" stroke-linecap="round" stroke-linejoin="round"></path><path id="Vector_9" d="M103.296 18H86.5231L78.1367 32.5227L86.5231 47.0455H103.296L111.682 32.5227L103.296 18Z" stroke="#0A466A" stroke-width="2" stroke-linecap="round" stroke-linejoin="round"></path><path id="Vector_10" d="M156.682 52.7729H137.046L127.023 69.9548L137.046 87.1366H156.682L166.705 69.9548L156.682 52.7729Z" stroke="#0A466A" stroke-width="2" stroke-linecap="round" stroke-linejoin="round"></path><path id="Vector_11" d="M61.1595 120.068H41.3186L31.2959 137.25L41.3186 154.227H61.1595L70.9777 137.25L61.1595 120.068Z" stroke="#0A466A" stroke-width="2" stroke-linecap="round" stroke-linejoin="round"></path><g id="Group_2"><path id="Vector_12" d="M94.5004 121.705C109.638 121.705 121.909 109.433 121.909 94.2958C121.909 79.1582 109.638 66.8867 94.5004 66.8867C79.3628 66.8867 67.0913 79.1582 67.0913 94.2958C67.0913 109.433 79.3628 121.705 94.5004 121.705Z" stroke="#D40000" stroke-width="2" stroke-linecap="round" stroke-linejoin="round"></path><path id="Vector_13" d="M65.0459 111.682C70.5686 121.296 80.5914 127.637 91.6368 128.455C95.1141 128.659 98.5914 128.455 102.069 127.637" stroke="#D40000" stroke-width="2" stroke-linecap="round" stroke-linejoin="round"></path><path id="Vector_14" d="M127.841 86.7274C123.75 68.3183 105.341 56.6592 86.9321 60.9547" stroke="#D40000" stroke-width="2" stroke-linecap="round" stroke-linejoin="round"></path></g><path id="Vector_15" d="M48.8864 66.0682V46.8409C48.8864 44.5909 47.0455 42.75 44.7955 42.75C42.5455 42.75 40.7046 44.5909 40.7046 46.8409V66.0682C39.2728 67.2955 38.4546 68.9318 38.4546 70.7727C38.4546 74.25 41.3182 77.1136 44.7955 77.1136C48.2728 77.1136 51.1364 74.25 51.1364 70.7727C51.1364 68.9318 50.1137 67.2955 48.8864 66.0682Z" stroke="#0A466A" stroke-width="2" stroke-linecap="round" stroke-linejoin="round"></path><path id="Vector_16" d="M44.7959 54.8184H48.8868" stroke="#0A466A" stroke-width="2" stroke-linecap="round" stroke-linejoin="round"></path><path id="Vector_17" d="M44.7959 59.9316H48.8868" stroke="#0A466A" stroke-width="2" stroke-linecap="round" stroke-linejoin="round"></path><path id="Vector_18" d="M91.2276 25.7729C88.5685 27.2048 86.9321 29.8639 86.9321 32.932C86.9321 37.432 90.6139 41.1139 95.1139 41.1139C99.6139 41.1139 103.296 37.432 103.296 32.932C103.296 29.8639 101.455 27.2048 99.0003 25.7729" stroke="#0A466A" stroke-width="2" stroke-linecap="round" stroke-linejoin="round"></path><path id="Vector_19" d="M94.9092 29.4545V22.5" stroke="#0A466A" stroke-width="2" stroke-linecap="round" stroke-linejoin="round"></path><path id="Vector_20" d="M139.705 68.1137V78.5455H154.023V67.7046" stroke="#0A466A" stroke-width="2" stroke-linecap="round" stroke-linejoin="round"></path><path id="Vector_21" d="M137.046 69.1363L141.955 64.8409L146.864 60.5454L151.773 64.8409L156.682 69.1363" stroke="#0A466A" stroke-width="2" stroke-linecap="round" stroke-linejoin="round"></path><path id="Vector_22" d="M80.1821 84.4771V104.727" stroke="#D40000" stroke-width="2" stroke-miterlimit="10" stroke-linecap="round" stroke-linejoin="round"></path><path id="Vector_23" d="M105.137 84.4771V104.727" stroke="#D40000" stroke-width="2" stroke-miterlimit="10" stroke-linecap="round" stroke-linejoin="round"></path><path id="Vector_24" d="M97.7729 83.8638H112.5" stroke="#D40000" stroke-width="2" stroke-miterlimit="10" stroke-linecap="round" stroke-linejoin="round"></path><path id="Vector_25" d="M92.6593 104.523C96.1613 104.523 99.0002 101.684 99.0002 98.1817C99.0002 94.6797 96.1613 91.8408 92.6593 91.8408C89.1573 91.8408 86.3184 94.6797 86.3184 98.1817C86.3184 101.684 89.1573 104.523 92.6593 104.523Z" stroke="#D40000" stroke-width="2" stroke-miterlimit="10" stroke-linecap="round" stroke-linejoin="round"></path></g></g></svg>