<svg xmlns="http://www.w3.org/2000/svg" width="180" height="180" viewBox="0 0 180 180" fill="none"><path d="M50.543 129.007V109.207" stroke="#0A466A" stroke-width="2" stroke-linecap="round" stroke-linejoin="round"></path><path d="M129.457 129.007V109.207" stroke="#0A466A" stroke-width="2" stroke-linecap="round" stroke-linejoin="round"></path><path d="M43.5269 136.023H6.60645" stroke="#0A466A" stroke-width="2" stroke-linecap="round" stroke-linejoin="round"></path><path d="M173.393 136.023H136.473" stroke="#0A466A" stroke-width="2" stroke-linecap="round" stroke-linejoin="round"></path><path d="M122.441 136.023H58.7861" stroke="#0A466A" stroke-width="2" stroke-linecap="round" stroke-linejoin="round"></path><path d="M81.1226 36.9614H19.9839C18.8543 36.9614 17.9385 37.8772 17.9385 39.0069V54.4092C17.9385 55.5388 18.8543 56.4546 19.9839 56.4546H81.1226C82.2522 56.4546 83.168 55.5388 83.168 54.4092V39.0069C83.168 37.8772 82.2522 36.9614 81.1226 36.9614Z" stroke="#0A466A" stroke-width="2" stroke-linecap="round" stroke-linejoin="round"></path><path d="M48.9274 43.4658H38.1683H27.4092" stroke="#0A466A" stroke-width="2" stroke-linecap="round" stroke-linejoin="round"></path><path d="M27.4092 49.6636H38.1683" stroke="#0A466A" stroke-width="2" stroke-linecap="round" stroke-linejoin="round"></path><path d="M70.4456 49.9499C72.2418 49.9499 73.6979 48.4938 73.6979 46.6976C73.6979 44.9014 72.2418 43.4453 70.4456 43.4453C68.6495 43.4453 67.1934 44.9014 67.1934 46.6976C67.1934 48.4938 68.6495 49.9499 70.4456 49.9499Z" stroke="#D40000" stroke-width="2" stroke-miterlimit="10"></path><path d="M81.1226 63.3271H19.9839C18.8543 63.3271 17.9385 64.2429 17.9385 65.3726V80.7749C17.9385 81.9046 18.8543 82.8203 19.9839 82.8203H81.1226C82.2522 82.8203 83.168 81.9046 83.168 80.7749V65.3726C83.168 64.2429 82.2522 63.3271 81.1226 63.3271Z" stroke="#0A466A" stroke-width="2" stroke-linecap="round" stroke-linejoin="round"></path><path d="M48.9274 69.832H38.1683H27.4092" stroke="#0A466A" stroke-width="2" stroke-linecap="round" stroke-linejoin="round"></path><path d="M27.4092 76.0298H38.1683" stroke="#0A466A" stroke-width="2" stroke-linecap="round" stroke-linejoin="round"></path><path d="M70.4456 76.3366C72.2418 76.3366 73.6979 74.8805 73.6979 73.0843C73.6979 71.2881 72.2418 69.832 70.4456 69.832C68.6495 69.832 67.1934 71.2881 67.1934 73.0843C67.1934 74.8805 68.6495 76.3366 70.4456 76.3366Z" stroke="#D40000" stroke-width="2" stroke-miterlimit="10"></path><path d="M81.1226 89.7139H19.9839C18.8543 89.7139 17.9385 90.6296 17.9385 91.7593V107.162C17.9385 108.291 18.8543 109.207 19.9839 109.207H81.1226C82.2522 109.207 83.168 108.291 83.168 107.162V91.7593C83.168 90.6296 82.2522 89.7139 81.1226 89.7139Z" stroke="#0A466A" stroke-width="2" stroke-linecap="round" stroke-linejoin="round"></path><path d="M48.9274 96.2183H38.1683H27.4092" stroke="#0A466A" stroke-width="2" stroke-linecap="round" stroke-linejoin="round"></path><path d="M27.4092 102.416H38.1683" stroke="#0A466A" stroke-width="2" stroke-linecap="round" stroke-linejoin="round"></path><path d="M70.4456 102.702C72.2418 102.702 73.6979 101.246 73.6979 99.45C73.6979 97.6538 72.2418 96.1978 70.4456 96.1978C68.6495 96.1978 67.1934 97.6538 67.1934 99.45C67.1934 101.246 68.6495 102.702 70.4456 102.702Z" stroke="#D40000" stroke-width="2" stroke-miterlimit="10"></path><path d="M50.5432 143.039C54.418 143.039 57.5592 139.898 57.5592 136.023C57.5592 132.148 54.418 129.007 50.5432 129.007C46.6685 129.007 43.5273 132.148 43.5273 136.023C43.5273 139.898 46.6685 143.039 50.5432 143.039Z" stroke="#D40000" stroke-width="2" stroke-miterlimit="10"></path><path d="M160.016 36.9614H98.8775C97.7478 36.9614 96.832 37.8772 96.832 39.0069V54.4092C96.832 55.5388 97.7478 56.4546 98.8775 56.4546H160.016C161.146 56.4546 162.062 55.5388 162.062 54.4092V39.0069C162.062 37.8772 161.146 36.9614 160.016 36.9614Z" stroke="#0A466A" stroke-width="2" stroke-linecap="round" stroke-linejoin="round"></path><path d="M127.841 43.4658H117.082H106.303" stroke="#0A466A" stroke-width="2" stroke-linecap="round" stroke-linejoin="round"></path><path d="M106.303 49.6636H117.082" stroke="#0A466A" stroke-width="2" stroke-linecap="round" stroke-linejoin="round"></path><path d="M149.339 49.9499C151.135 49.9499 152.591 48.4938 152.591 46.6976C152.591 44.9014 151.135 43.4453 149.339 43.4453C147.543 43.4453 146.087 44.9014 146.087 46.6976C146.087 48.4938 147.543 49.9499 149.339 49.9499Z" stroke="#D40000" stroke-width="2" stroke-miterlimit="10"></path><path d="M160.016 63.3271H98.8775C97.7478 63.3271 96.832 64.2429 96.832 65.3726V80.7749C96.832 81.9046 97.7478 82.8203 98.8775 82.8203H160.016C161.146 82.8203 162.062 81.9046 162.062 80.7749V65.3726C162.062 64.2429 161.146 63.3271 160.016 63.3271Z" stroke="#0A466A" stroke-width="2" stroke-linecap="round" stroke-linejoin="round"></path><path d="M127.841 69.832H117.082H106.303" stroke="#0A466A" stroke-width="2" stroke-linecap="round" stroke-linejoin="round"></path><path d="M106.303 76.0298H117.082" stroke="#0A466A" stroke-width="2" stroke-linecap="round" stroke-linejoin="round"></path><path d="M149.339 76.3366C151.135 76.3366 152.591 74.8805 152.591 73.0843C152.591 71.2881 151.135 69.832 149.339 69.832C147.543 69.832 146.087 71.2881 146.087 73.0843C146.087 74.8805 147.543 76.3366 149.339 76.3366Z" stroke="#D40000" stroke-width="2" stroke-miterlimit="10"></path><path d="M160.016 89.7139H98.8775C97.7478 89.7139 96.832 90.6296 96.832 91.7593V107.162C96.832 108.291 97.7478 109.207 98.8775 109.207H160.016C161.146 109.207 162.062 108.291 162.062 107.162V91.7593C162.062 90.6296 161.146 89.7139 160.016 89.7139Z" stroke="#0A466A" stroke-width="2" stroke-linecap="round" stroke-linejoin="round"></path><path d="M127.841 96.2183H117.082H106.303" stroke="#0A466A" stroke-width="2" stroke-linecap="round" stroke-linejoin="round"></path><path d="M106.303 102.416H117.082" stroke="#0A466A" stroke-width="2" stroke-linecap="round" stroke-linejoin="round"></path><path d="M149.339 102.702C151.135 102.702 152.591 101.246 152.591 99.45C152.591 97.6538 151.135 96.1978 149.339 96.1978C147.543 96.1978 146.087 97.6538 146.087 99.45C146.087 101.246 147.543 102.702 149.339 102.702Z" stroke="#D40000" stroke-width="2" stroke-miterlimit="10"></path><path d="M129.456 143.039C133.331 143.039 136.472 139.898 136.472 136.023C136.472 132.148 133.331 129.007 129.456 129.007C125.582 129.007 122.44 132.148 122.44 136.023C122.44 139.898 125.582 143.039 129.456 143.039Z" stroke="#D40000" stroke-width="2" stroke-miterlimit="10"></path></svg>