<svg xmlns="http://www.w3.org/2000/svg" width="180" height="180" viewBox="0 0 180 180" fill="none"><g id="Cloud-Zabbix-icon_180x180"><path id="Vector" d="M137.857 122.843V109.445" stroke="#0A466A" stroke-width="2" stroke-linecap="round" stroke-linejoin="round"></path><path id="Vector_2" d="M156.307 122.843H119.386" stroke="#0A466A" stroke-width="2" stroke-linecap="round" stroke-linejoin="round"></path><g id="Group"><path id="Vector_3" d="M168.416 37.2002H107.277C106.148 37.2002 105.232 38.116 105.232 39.2457V54.6479C105.232 55.7776 106.148 56.6934 107.277 56.6934H168.416C169.546 56.6934 170.461 55.7776 170.461 54.6479V39.2457C170.461 38.116 169.546 37.2002 168.416 37.2002Z" stroke="#0A466A" stroke-width="2" stroke-linecap="round" stroke-linejoin="round"></path><g id="Group_2"><path id="Vector_4" d="M136.241 43.7046H125.482H114.702" stroke="#0A466A" stroke-width="2" stroke-linecap="round" stroke-linejoin="round"></path><path id="Vector_5" d="M114.702 49.9023H125.482" stroke="#0A466A" stroke-width="2" stroke-linecap="round" stroke-linejoin="round"></path><path id="Vector_6" d="M157.739 50.1886C159.535 50.1886 160.991 48.7325 160.991 46.9364C160.991 45.1402 159.535 43.6841 157.739 43.6841C155.942 43.6841 154.486 45.1402 154.486 46.9364C154.486 48.7325 155.942 50.1886 157.739 50.1886Z" stroke="#D40000" stroke-width="2" stroke-miterlimit="10"></path></g><path id="Vector_7" d="M168.416 63.5659H107.277C106.148 63.5659 105.232 64.4817 105.232 65.6114V81.0136C105.232 82.1433 106.148 83.0591 107.277 83.0591H168.416C169.546 83.0591 170.461 82.1433 170.461 81.0136V65.6114C170.461 64.4817 169.546 63.5659 168.416 63.5659Z" stroke="#0A466A" stroke-width="2" stroke-linecap="round" stroke-linejoin="round"></path><g id="Group_3"><path id="Vector_8" d="M136.241 70.0708H125.482H114.702" stroke="#0A466A" stroke-width="2" stroke-linecap="round" stroke-linejoin="round"></path><path id="Vector_9" d="M114.702 76.2686H125.482" stroke="#0A466A" stroke-width="2" stroke-linecap="round" stroke-linejoin="round"></path><path id="Vector_10" d="M157.739 76.5753C159.535 76.5753 160.991 75.1193 160.991 73.3231C160.991 71.5269 159.535 70.0708 157.739 70.0708C155.942 70.0708 154.486 71.5269 154.486 73.3231C154.486 75.1193 155.942 76.5753 157.739 76.5753Z" stroke="#D40000" stroke-width="2" stroke-miterlimit="10"></path></g><path id="Vector_11" d="M168.416 89.9526H107.277C106.148 89.9526 105.232 90.8684 105.232 91.9981V107.4C105.232 108.53 106.148 109.446 107.277 109.446H168.416C169.546 109.446 170.461 108.53 170.461 107.4V91.9981C170.461 90.8684 169.546 89.9526 168.416 89.9526Z" stroke="#0A466A" stroke-width="2" stroke-linecap="round" stroke-linejoin="round"></path><g id="Group_4"><path id="Vector_12" d="M136.241 96.457H125.482H114.702" stroke="#0A466A" stroke-width="2" stroke-linecap="round" stroke-linejoin="round"></path><path id="Vector_13" d="M114.702 102.655H125.482" stroke="#0A466A" stroke-width="2" stroke-linecap="round" stroke-linejoin="round"></path><path id="Vector_14" d="M157.739 102.941C159.535 102.941 160.991 101.485 160.991 99.6888C160.991 97.8926 159.535 96.4365 157.739 96.4365C155.942 96.4365 154.486 97.8926 154.486 99.6888C154.486 101.485 155.942 102.941 157.739 102.941Z" stroke="#D40000" stroke-width="2" stroke-miterlimit="10"></path></g></g><path id="Vector_15" d="M92.2888 68.4114C87.322 65.5232 81.4285 63.8384 75.1309 63.8384C59.1137 63.8384 45.8769 74.6037 43.4054 88.7167C42.4786 88.6511 41.528 88.5854 40.5774 88.5854C22.8016 88.5854 8.40039 101.845 8.40039 118.212C8.40039 134.579 22.8016 147.838 40.5774 147.838H119.713C130.835 147.838 140.626 142.653 146.4 134.776" stroke="#0A466A" stroke-width="2" stroke-linecap="round" stroke-linejoin="round"></path></g></svg>